<?xml version="1.0" encoding="UTF-8"?><svg id="Layer_2" xmlns="http://www.w3.org/2000/svg" viewBox="0 0 28.4 17.2"><defs><style>.cls-1{fill:#f68989;}</style></defs><g id="Layer_1-2"><path class="cls-1" d="M26.5,3.6c-.3-.2-6.9-4.8-13.9-3.2-3.9,.9-7.1,3.5-9.5,7.7L.6,7c-.2,0-.3,0-.5,0,0,0,0,.1-.1,.2,0,0,0,.2,0,.3l2.8,9.4c0,.1,.1,.2,.2,.3,.1,0,.3,0,.4,0l8.8-4.3c.2,0,.3-.2,.2-.4,0-.2,0-.3-.3-.4l-2.4-1.1C14.5,2.3,26,4.4,26.1,4.5l2.3,.5-1.9-1.3ZM8.9,10.7h0s0,0,0,0c0,0,0,0,0,0h0s-.2,.4-.2,.4c0,.2,0,.5,.2,.6l2,.9-7.5,3.6L1.1,8.2l2,.9c.2,0,.5,0,.6-.2l.2-.4h0C6.2,4.5,9.2,2.1,12.8,1.3c4.4-1,8.7,.7,11.2,1.9-3.8-.2-11.4,.5-15,7.4Z"/></g></svg>