<?xml version="1.0" encoding="UTF-8"?><svg id="Layer_2" xmlns="http://www.w3.org/2000/svg" viewBox="0 0 33 23"><defs><style>.cls-1{fill:#f68989;}</style></defs><g id="Layer_1-2"><path class="cls-1" d="M33,15.2c0,.2,0,.3-.2,.4l-8.6,7.3c0,0-.2,.1-.3,.1s-.1,0-.2,0c-.2,0-.3-.3-.3-.5v-3.2H9.2c-.3,0-.5-.2-.5-.5s.2-.5,.5-.5h14.7c.3,0,.5,.2,.5,.5v2.6l7.3-6.2-7.3-6.2v2.6c0,.3-.2,.5-.5,.5H9.7v3.2c0,.2-.1,.4-.3,.5-.2,0-.4,0-.5,0L.2,8.2c-.1,0-.2-.2-.2-.4s0-.3,.2-.4L8.8,.1c.2-.1,.4-.2,.5,0s.3,.3,.3,.5V3.7h14.1c.3,0,.5,.2,.5,.5s-.2,.5-.5,.5H9.2c-.3,0-.5-.2-.5-.5V1.6L1.3,7.8l7.3,6.2v-2.6c0-.3,.2-.5,.5-.5h14.1v-3.2c0-.2,.1-.4,.3-.5,.2,0,.4,0,.5,0l8.6,7.3c.1,0,.2,.2,.2,.4h0Z"/></g></svg>