<?xml version="1.0" encoding="iso-8859-1"?>
<!-- Generator: Adobe Illustrator 19.0.0, SVG Export Plug-In . SVG Version: 6.00 Build 0)  -->
<svg version="1.1" id="Capa_1" xmlns="http://www.w3.org/2000/svg" xmlns:xlink="http://www.w3.org/1999/xlink" x="0px" y="0px"
	 viewBox="0 0 512.002 512.002" style="enable-background:new 0 0 512.002 512.002;" xml:space="preserve">
<polygon style="fill:#FFCB5A;" points="495.215,121.702 360.92,222.423 360.92,163.669 235.018,163.669 235.018,71.341 
	360.92,71.341 360.92,12.587 "/>
<polygon style="fill:#00448F;" points="268.592,348.324 268.592,440.652 109.116,440.652 109.116,499.406 8.395,390.292 
	109.116,289.57 109.116,348.324 "/>
<path style="fill:#168DE2;" d="M109.116,507.8c-2.342,0-4.583-0.974-6.169-2.694L2.226,395.991
	c-3.055-3.315-2.954-8.444,0.235-11.633l100.721-100.721c3.282-3.273,8.595-3.273,11.868,0c1.578,1.578,2.459,3.71,2.459,5.934
	v50.361h151.082c4.633,0,8.393,3.76,8.393,8.393v92.328c0,4.633-3.76,8.393-8.393,8.393H117.51v50.361
	C117.51,504.04,113.758,507.8,109.116,507.8z M20.037,390.518l80.686,87.418v-37.284c0-4.633,3.76-8.393,8.393-8.393h151.082
	v-75.541H109.116c-4.633,0-8.393-3.76-8.393-8.393v-38.492L20.037,390.518z"/>
<g>
	<path style="fill:#F5B05C;" d="M360.92,230.816c-4.633,0-8.393-3.76-8.393-8.393v-50.361H235.018c-4.633,0-8.393-3.76-8.393-8.393
		V71.341c0-4.633,3.76-8.393,8.393-8.393h117.508V12.587c0-4.633,3.76-8.393,8.402-8.385c1.922,0,3.785,0.663,5.279,1.872
		l134.295,109.115c3.601,2.921,4.146,8.209,1.225,11.81c-0.428,0.529-0.932,1.007-1.477,1.418L365.956,229.138
		C364.504,230.229,362.741,230.816,360.92,230.816z M243.412,155.275H360.92c4.633,0,8.393,3.76,8.393,8.393v41.967l112.262-84.195
		L369.313,30.213v41.128c0,4.633-3.76,8.393-8.393,8.393H243.412V155.275z"/>
	<rect x="142.69" y="62.947" style="fill:#F5B05C;" width="67.148" height="16.787"/>
	<rect x="109.116" y="62.947" style="fill:#F5B05C;" width="16.787" height="16.787"/>
	<rect x="33.575" y="113.308" style="fill:#F5B05C;" width="58.754" height="16.787"/>
	<rect x="176.264" y="155.275" style="fill:#F5B05C;" width="33.574" height="16.787"/>
	<rect x="92.33" y="155.275" style="fill:#F5B05C;" width="50.361" height="16.787"/>
	<rect x="58.756" y="155.275" style="fill:#F5B05C;" width="16.787" height="16.787"/>
	<rect x="25.182" y="155.275" style="fill:#F5B05C;" width="16.787" height="16.787"/>
	<rect x="134.297" y="113.308" style="fill:#F5B05C;" width="16.787" height="16.787"/>
	<rect x="167.871" y="113.308" style="fill:#F5B05C;" width="41.967" height="16.787"/>
	<rect x="0.002" y="113.308" style="fill:#F5B05C;" width="16.787" height="16.787"/>
</g>
<g>
	<rect x="293.772" y="339.931" style="fill:#168DE2;" width="83.934" height="16.787"/>
	<rect x="394.493" y="339.931" style="fill:#168DE2;" width="16.787" height="16.787"/>
	<rect x="411.28" y="390.292" style="fill:#168DE2;" width="58.754" height="16.787"/>
	<rect x="293.772" y="432.259" style="fill:#168DE2;" width="16.787" height="16.787"/>
	<rect x="386.1" y="432.259" style="fill:#168DE2;" width="50.361" height="16.787"/>
	<rect x="453.248" y="432.259" style="fill:#168DE2;" width="16.787" height="16.787"/>
	<rect x="495.215" y="432.259" style="fill:#168DE2;" width="16.787" height="16.787"/>
	<rect x="360.92" y="390.292" style="fill:#168DE2;" width="16.787" height="16.787"/>
	<rect x="293.772" y="390.292" style="fill:#168DE2;" width="50.361" height="16.787"/>
	<rect x="486.821" y="390.292" style="fill:#168DE2;" width="16.787" height="16.787"/>
	<rect x="327.346" y="432.259" style="fill:#168DE2;" width="16.787" height="16.787"/>
	<rect x="453.248" y="339.931" style="fill:#168DE2;" width="50.361" height="16.787"/>
</g>
<rect x="8.395" y="62.947" style="fill:#F5B05C;" width="50.361" height="16.787"/>
<g>
</g>
<g>
</g>
<g>
</g>
<g>
</g>
<g>
</g>
<g>
</g>
<g>
</g>
<g>
</g>
<g>
</g>
<g>
</g>
<g>
</g>
<g>
</g>
<g>
</g>
<g>
</g>
<g>
</g>
</svg>
