<svg height="512" viewBox="0 0 512 512" width="512" xmlns="http://www.w3.org/2000/svg"><g id="Filled_outline" data-name="Filled outline"><path d="m144 24h224v464h-224z" fill="#60d1e0"/><path d="m48 88h96v400h-96z" fill="#5bccd9" transform="matrix(-1 0 0 -1 192 576)"/><path d="m368 88h96v400h-96z" fill="#5bccd9" transform="matrix(-1 0 0 -1 832 576)"/><g fill="#57bfcc"><path d="m240 56h32v32h-32z"/><path d="m304 56h32v32h-32z"/><path d="m176 56h32v32h-32z"/><path d="m240 120h32v32h-32z"/><path d="m304 120h32v32h-32z"/><path d="m176 120h32v32h-32z"/><path d="m240 184h32v32h-32z"/><path d="m304 184h32v32h-32z"/><path d="m176 184h32v32h-32z"/><path d="m80 120h32v32h-32z"/><path d="m80 184h32v32h-32z"/><path d="m400 120h32v32h-32z"/><path d="m400 184h32v32h-32z"/></g><path d="m368 88h16v400h-16z" fill="#5ac6d4"/><path d="m108 216a68 68 0 0 1 68 68v124a0 0 0 0 1 0 0h-136a0 0 0 0 1 0 0v-124a68 68 0 0 1 68-68z" fill="#ffb531"/><path d="m88 352h48v24h-48z" fill="#fec9a3"/><path d="m80.147 248h64a24 24 0 0 1 24 24v48a56 56 0 0 1 -56 56 56 56 0 0 1 -56-56v-48a24 24 0 0 1 24-24z" fill="#fec9a3"/><path d="m40 312 13.171-1.646a126.1 126.1 0 0 0 82.829-46.354l32 40 8-16v-8a64 64 0 0 0 -64-64h-10.388a61.612 61.612 0 0 0 -38.489 13.5 61.615 61.615 0 0 0 -23.123 48.112z" fill="#ffb531"/><path d="m160 432h40v56h-40z" fill="#fec9a3"/><path d="m24 432h40v56h-40z" fill="#fec9a3"/><path d="m160 416 3.716 3.716a34.692 34.692 0 0 1 -3.716 52.284v16h-96v-16a34.692 34.692 0 0 1 -3.716-52.284l3.716-3.716z" fill="#348fd9"/><path d="m80 376 32 72 32-72z" fill="#fec9a3"/><path d="m88 416h48v32h-48z" fill="#5bccd9"/><path d="m160 488h-96v-56h-40v-24a32 32 0 0 1 32-32h24l32 72 32-72h24a32 32 0 0 1 32 32v24h-40z" fill="#348fd9"/><path d="m376 360h48v24h-48z" fill="#fec9a3"/><path d="m400.147 384a56 56 0 0 1 -56-56v-56a24 24 0 0 1 24-24h64a24 24 0 0 1 24 24v56a56 56 0 0 1 -56 56z" fill="#fec9a3"/><path d="m424 216h-48a32 32 0 0 0 -32 32v32h112v-32a32 32 0 0 0 -32-32z" fill="#348fd9"/><path d="m448 304h-5.117a88.356 88.356 0 0 1 -21.441-2.64 88.42 88.42 0 0 0 -42.884 0 88.356 88.356 0 0 1 -21.441 2.64h-5.117a16 16 0 0 1 -16-16 16 16 0 0 1 16-16h96a16 16 0 0 1 16 16 16 16 0 0 1 -16 16z" fill="#459de6"/><path d="m344 384a32 32 0 0 0 -32 32v72h176v-72a32 32 0 0 0 -32-32z" fill="#348fd9"/><path d="m376 384 24 40 24-40z" fill="#e0e0de"/><path d="m232 352h48v24h-48z" fill="#fec9a3"/><path d="m224 240h64a24 24 0 0 1 24 24v56a56 56 0 0 1 -56 56 56 56 0 0 1 -56-56v-56a24 24 0 0 1 24-24z" fill="#fec9a3"/><path d="m312 296-24-40h-84a20 20 0 0 1 -20-20 20 20 0 0 1 20-20h76a32 32 0 0 1 32 32z" fill="#f98500"/><path d="m200 376a32 32 0 0 0 -32 32v80h176v-80a32 32 0 0 0 -32-32z" fill="#e0e0de"/><path d="m232 376 16 24-8 72 16 16 16-16-8-72 16-24z" fill="#348fd9"/><path d="m64 56h80v32h-80z" fill="#5ac6d4"/><path d="m368 56h80v32h-80z" fill="#5ac6d4"/><path d="m80 376-24 32 24 8v16l32 16z" fill="#459de6"/><path d="m144 376 24 32-24 8v16l-32 16z" fill="#459de6"/><path d="m360 192h16v-96h80v112h16v-120a8 8 0 0 0 -8-8h-8v-24a8 8 0 0 0 -8-8h-72v-24a8 8 0 0 0 -8-8h-176v16h168zm16-128h64v16h-64zm-320 32h80v104h16v-168h24v-16h-32a8 8 0 0 0 -8 8v24h-72a8 8 0 0 0 -8 8v24h-8a8 8 0 0 0 -8 8v128h16zm16-32h64v16h-64zm208-8a8 8 0 0 0 -8-8h-32a8 8 0 0 0 -8 8v32a8 8 0 0 0 8 8h32a8 8 0 0 0 8-8zm-16 24h-16v-16h16zm80-24a8 8 0 0 0 -8-8h-32a8 8 0 0 0 -8 8v32a8 8 0 0 0 8 8h32a8 8 0 0 0 8-8zm-16 24h-16v-16h16zm-112-24a8 8 0 0 0 -8-8h-32a8 8 0 0 0 -8 8v32a8 8 0 0 0 8 8h32a8 8 0 0 0 8-8zm-16 24h-16v-16h16zm80 40a8 8 0 0 0 -8-8h-32a8 8 0 0 0 -8 8v32a8 8 0 0 0 8 8h32a8 8 0 0 0 8-8zm-16 24h-16v-16h16zm80-24a8 8 0 0 0 -8-8h-32a8 8 0 0 0 -8 8v32a8 8 0 0 0 8 8h32a8 8 0 0 0 8-8zm-16 24h-16v-16h16zm-112-24a8 8 0 0 0 -8-8h-32a8 8 0 0 0 -8 8v32a8 8 0 0 0 8 8h32a8 8 0 0 0 8-8zm-16 24h-16v-16h16zm80 40v8h-48v-8a8 8 0 0 1 8-8h32a8 8 0 0 1 8 8zm64 0v8h-48v-8a8 8 0 0 1 8-8h32a8 8 0 0 1 8 8zm-128 0v8h-48v-8a8 8 0 0 1 8-8h32a8 8 0 0 1 8 8zm-96-64a8 8 0 0 0 -8-8h-32a8 8 0 0 0 -8 8v32a8 8 0 0 0 8 8h32a8 8 0 0 0 8-8zm-16 24h-16v-16h16zm16 40v8h-48v-8a8 8 0 0 1 8-8h32a8 8 0 0 1 8 8zm320-64a8 8 0 0 0 -8-8h-32a8 8 0 0 0 -8 8v32a8 8 0 0 0 8 8h32a8 8 0 0 0 8-8zm-16 24h-16v-16h16zm16 40v8h-48v-8a8 8 0 0 1 8-8h32a8 8 0 0 1 8 8zm-351.853 144h16a8 8 0 0 0 16 0h16a24 24 0 0 1 -48 0zm56-16h-16v-16h16zm231.853 24h16a8 8 0 0 0 16 0h16a24 24 0 0 1 -48 0zm-352 160h464a8 8 0 0 0 8-8v-48h-16v40h-16v-56h-16v16h-24v16h24v24h-40v-53.784l20.53-34.216h27.47a24.027 24.027 0 0 1 24 24v8h16v-8a40.045 40.045 0 0 0 -40-40h-13.586a63.85 63.85 0 0 0 21.736-48v-22.262a23.965 23.965 0 0 0 -.05-35.521c-.022-.4-.1-22.217-.1-22.217a40.045 40.045 0 0 0 -40-40h-48a40.045 40.045 0 0 0 -40 40v22.131a23.953 23.953 0 0 0 .15 35.869v22a63.85 63.85 0 0 0 21.736 48s-18.708.242-21.062.669a39.8 39.8 0 0 0 -24.824-8.669h-13.736a63.85 63.85 0 0 0 21.736-48v-72a40.045 40.045 0 0 0 -40-40h-76a28 28 0 0 0 -11.889 53.343c-.072.88-.111 58.657-.111 58.657a63.85 63.85 0 0 0 21.736 48h-13.736a39.759 39.759 0 0 0 -16 3.35v-87.35a76 76 0 0 0 -133.948-49.179l12.2 10.358a60.005 60.005 0 0 1 105.748 38.821l-1.564 5.239-24.189-30.239a8 8 0 0 0 -12.494 0 117.486 117.486 0 0 1 -77.575 43.414l-4.178.524v-18.938a60.1 60.1 0 0 1 7.054-28.258l-14.108-7.542a76.15 76.15 0 0 0 -8.946 35.8v92.016a40.147 40.147 0 0 0 -16 31.984v80a8 8 0 0 0 8 8zm376-87.549-9.871-16.451h19.742zm-48-160.451a24.027 24.027 0 0 1 24-24h48a24.027 24.027 0 0 1 24 24v16h-96zm-8 40a8.009 8.009 0 0 1 8-8h96a8 8 0 0 1 0 16h-5.117a80.49 80.49 0 0 1 -19.5-2.4 96.747 96.747 0 0 0 -46.764 0 80.49 80.49 0 0 1 -19.5 2.4h-5.119a8.009 8.009 0 0 1 -8-8zm8.15 40v-16h4.967a96.277 96.277 0 0 0 10.883-.627v8.627h16v-11.661a80.775 80.775 0 0 1 32 0v11.661h16v-8.627a96.29 96.29 0 0 0 10.883.627h5.117.15v16a48 48 0 0 1 -96 0zm19.32 64 20.53 34.216v53.784h-40v-24h24v-16h-24v-32a39.759 39.759 0 0 0 -3.35-16zm-267.47 88h-32v-8a8 8 0 0 0 -3.2-6.4 26.691 26.691 0 0 1 -2.859-40.227l3.716-3.716-1.008-1.008 3.351 1.117v10.234a8 8 0 0 0 4.422 7.155l27.578 13.789zm-21.47-71.589-13.47-4.491 9.164-12.22 17.409 39.17-7.633-3.814v-11.056a8 8 0 0 0 -5.47-7.589zm9.78-24.411h39.38l-19.69 44.3zm53.466 7.7 9.164 12.218-13.47 4.491a8 8 0 0 0 -5.47 7.591v11.056l-7.633 3.816zm14.224 69.25a26.856 26.856 0 0 1 -4.8 4.65 8 8 0 0 0 -3.2 6.4v8h-32v-27.056l27.578-13.789a8 8 0 0 0 4.422-7.155v-10.234l3.351-1.117-1.008 1.008 3.72 3.72a27.184 27.184 0 0 1 1.937 2.161zm96 15.736-7.625-7.624 7.576-68.179a7.924 7.924 0 0 0 .049-.869 7.924 7.924 0 0 0 .049.869l7.576 68.179zm1.344-81.124a8 8 0 0 0 -1.344 4.423 8 8 0 0 0 -1.344-4.423l-7.708-11.562h18.1zm54.656-11.562a24.028 24.028 0 0 1 24 24v72h-16v-64h-16v64h-28.687l2.344-2.343a8 8 0 0 0 2.294-6.54l-7.678-69.1 12.008-18.017zm-120-148a12.013 12.013 0 0 1 12-12h76a24.027 24.027 0 0 1 24 24v19.118l-9.14-15.234a8 8 0 0 0 -6.86-3.884h-84a12.013 12.013 0 0 1 -12-12zm16 84v-56h75.471l20.529 34.216v21.784a48 48 0 0 1 -96 0zm-32 88a24.028 24.028 0 0 1 24-24h27.719l12.008 18.013-7.678 69.1a8 8 0 0 0 2.294 6.54l2.344 2.347h-28.687v-64h-16v64h-16zm-7.979-24a40.1 40.1 0 0 0 -3.642 5.838l-4.379-5.838zm-.021-32.8v16.8h-13.586a64.425 64.425 0 0 0 13.586-16.8zm-103.85-34.542a134.307 134.307 0 0 0 17.184-4.658h14.816v-6.1a133.325 133.325 0 0 0 39.619-29.378l24.381 30.476v13.002a48 48 0 0 1 -96 0zm-16 2.385v.957a63.85 63.85 0 0 0 21.736 48h-13.886a40.116 40.116 0 0 0 -8 .813zm-16.15 88.957a23.983 23.983 0 0 1 24-24h8l-14.4 19.2a7.987 7.987 0 0 0 3.658 12.3 42.706 42.706 0 0 0 -6.014 8.5h-15.244zm0 32h10.342a42.6 42.6 0 0 0 13.658 35.748v4.252h-24zm200-120h16a8 8 0 0 0 16 0h16a24 24 0 0 1 -48 0zm8-16h-16v-16h16zm48 0h-16v-16h16z"/></g></svg>