<svg id="Flat" height="512" viewBox="0 0 512 512" width="512" xmlns="http://www.w3.org/2000/svg"><path d="m344 120h-240l8-80h224z" fill="#7e8589"/><path d="m104 120h240v272h-240z" fill="#4f5659"/><path d="m168 24h112v64h-112z" fill="#e9eef2"/><path d="m304 96h-160a8 8 0 0 1 0-16h160a8 8 0 0 1 0 16z" fill="#414649"/><path d="m144 152h160v64h-160z" fill="#e9eef2"/><g fill="#9aa3a8"><path d="m240 264h-32a8 8 0 0 1 0-16h32a8 8 0 0 1 0 16z"/><path d="m176 296h-32a8 8 0 0 1 0-16h32a8 8 0 0 1 0 16z"/><path d="m240 296h-32a8 8 0 0 1 0-16h32a8 8 0 0 1 0 16z"/><path d="m176 328h-32a8 8 0 0 1 0-16h32a8 8 0 0 1 0 16z"/><path d="m240 328h-32a8 8 0 0 1 0-16h32a8 8 0 0 1 0 16z"/><path d="m176 360h-32a8 8 0 0 1 0-16h32a8 8 0 0 1 0 16z"/><path d="m240 360h-32a8 8 0 0 1 0-16h32a8 8 0 0 1 0 16z"/></g><path d="m272 312h32v48h-32z" fill="#35a872"/><path d="m272 248h32v32h-32z" fill="#f7b030"/><path d="m328 440h-208l-16-48h240z" fill="#414649"/><path d="m144 424h160v64h-160z" fill="#88c791"/><path d="m240 424h32v64h-32z" fill="#35a872"/><path d="m344 120h64v272h-64z" fill="#7e8589"/><path d="m176 264h-32a8 8 0 0 1 0-16h32a8 8 0 0 1 0 16z" fill="#9aa3a8"/><path d="m368 120h16v272h-16z" fill="#414649"/></svg>