<svg id="filled_outline" height="512" viewBox="0 0 512 512" width="512" xmlns="http://www.w3.org/2000/svg" data-name="filled outline"><path d="m424 472h32a32 32 0 0 0 32-32v-112h-64z" fill="#b2c6eb"/><path d="m184 440v-392h240v392a32 32 0 0 0 32 32h-240a32 32 0 0 1 -32-32z" fill="#e0edff"/><path d="m224 168h32v32h-32z" fill="#f6bb00"/><path d="m224 232h32v32h-32z" fill="#f6bb00"/><g fill="#548aff"><path d="m64 296h192l-24 112h-144z"/><path d="m120 440h32a0 0 0 0 1 0 0v16a16 16 0 0 1 -16 16 16 16 0 0 1 -16-16v-16a0 0 0 0 1 0 0z"/><path d="m200 440h32a0 0 0 0 1 0 0v16a16 16 0 0 1 -16 16 16 16 0 0 1 -16-16v-16a0 0 0 0 1 0 0z"/></g><path d="m488 320h-56v-272a8.00039 8.00039 0 0 0 -8-8h-240a8.00039 8.00039 0 0 0 -8 8v240h-105.95044l-6.27515-25.88477a7.99825 7.99825 0 0 0 -7.77441-6.11523h-40v16h33.708l41.18458 169.88477a7.99825 7.99825 0 0 0 7.77442 6.11523h13.333v8a24 24 0 0 0 48 0v-8h32v8a24.0275 24.0275 0 0 0 24 24h240a40.04584 40.04584 0 0 0 40-40v-112a8.00039 8.00039 0 0 0 -8-8zm-241.89551-16-20.57226 96h-128.33081l-23.27295-96zm-145.02441 112h130.91992a7.9989 7.9989 0 0 0 7.82227-6.32422l24-112a7.99934 7.99934 0 0 0 -7.82227-9.67578h-64v-232h224v384a39.79015 39.79015 0 0 0 8.022 24h-185.39822a23.88238 23.88238 0 0 0 1.37622-8v-8h16v-16h-151.041zm42.91992 40a8 8 0 0 1 -16 0v-8h16zm64 0v-8h16v8a8 8 0 0 1 -16 0zm272-16a24 24 0 0 1 -48 0v-104h48z"/><path d="m296 112h56v16h-56z"/><path d="m256 112h24v16h-24z"/><path d="m312 80h24v16h-24z"/><path d="m272 80h24v16h-24z"/><path d="m224 208h32a8.00039 8.00039 0 0 0 8-8v-32a8.00039 8.00039 0 0 0 -8-8h-32a8.00039 8.00039 0 0 0 -8 8v32a8.00039 8.00039 0 0 0 8 8zm8-32h16v16h-16z"/><path d="m280 176h16v16h-16z"/><path d="m312 176h72v16h-72z"/><path d="m320 208h24v16h-24z"/><path d="m360 208h24v16h-24z"/><path d="m320 272h24v16h-24z"/><path d="m360 272h24v16h-24z"/><path d="m320 336h24v16h-24z"/><path d="m360 336h24v16h-24z"/><path d="m320 400h24v16h-24z"/><path d="m360 400h24v16h-24z"/><path d="m264 232a8.00039 8.00039 0 0 0 -8-8h-32a8.00039 8.00039 0 0 0 -8 8v32a8.00039 8.00039 0 0 0 8 8h32a8.00039 8.00039 0 0 0 8-8zm-16 24h-16v-16h16z"/><path d="m280 240h16v16h-16z"/><path d="m312 240h72v16h-72z"/><path d="m280 304h16v16h-16z"/><path d="m312 304h72v16h-72z"/><path d="m280 368h16v16h-16z"/><path d="m312 368h72v16h-72z"/></svg>