<svg height="512pt" viewBox="0 -36 512.00059 512" width="512pt" xmlns="http://www.w3.org/2000/svg"><path d="m340.402344 266c0 91.957031-74.546875 166.5-166.5 166.5-91.957032 0-166.5-74.542969-166.5-166.5v-150c0-2.757812 2.238281-5 5-5h2c49.703125 0 90-40.292969 90-90v-8.5c0-2.757812 2.238281-5 5-5h129c2.757812 0 5 2.242188 5 5v10.835938c0 49.703124 40.292968 90 90 90h2c2.757812 0 5 2.238281 5 5zm0 0" fill="#7bd6a4"/><path d="m173.402344 37v365.5c-75.113282 0-136-60.886719-136-136v-131.5c52.375 0 94.832031-42.457031 94.832031-94.832031v-3.167969zm0 0" fill="#37aa65"/><path d="m340.402344 118.332031v147.667969c0 91.960938-74.542969 166.5-166.5 166.5-5.0625 0-10.0625-.230469-15-.667969 84.929687-7.582031 151.5-78.929687 151.5-165.832031v-147.667969c0-2.761719-2.242188-5-5-5h-2c-49.710938 0-90-40.289062-90-90v-10.832031c0-2.757812-2.242188-5-5-5h30c2.757812 0 5 2.242188 5 5v10.832031c0 49.710938 40.289062 90 90 90h2c2.757812 0 5 2.238281 5 5zm0 0" fill="#28af5f"/><path d="m182.902344 313.5h-52.5c-6.628906 0-12-5.371094-12-12v-129c0-6.625 5.371094-12 12-12h52.5zm0 0" fill="#ffd47d"/><path d="m399.730469 331.488281h37.042969c9.808593 0 18.136718-8.027343 17.953124-17.832031-.175781-9.511719-7.941406-17.167969-17.496093-17.167969h26.460937c12.199219 0 22.589844-9.484375 23.027344-21.679687.453125-12.796875-9.789062-23.320313-22.488281-23.320313h17.460937c12.203125 0 22.59375-9.484375 23.027344-21.679687.453125-12.796875-9.789062-23.320313-22.484375-23.320313h-18c12.699219 0 22.941406-10.519531 22.484375-23.320312-.433594-12.191407-10.824219-21.679688-23.027344-21.679688h-61.898437c-2.761719 0-5-2.234375-5-4.996093l-.0625-91.503907c0-15.1875-12.308594-27.5-27.5-27.5-15.1875 0-27.5 12.3125-27.5 27.5v23.554688c0 17.09375-8.734375 33.003906-23.15625 42.183593l-40.972657 26.074219c-4.8125 3.0625-10.402343 4.6875-16.105468 4.6875h-25.765625l8.734375 154.449219 15.964844 9.046875c7.515624 4.265625 16.011718 6.503906 24.65625 6.503906h114.148437" fill="#fcd09f"/><path d="m230.402344 328.5h-42c-8.285156 0-15-6.714844-15-15v-153c0-8.28125 6.714844-15 15-15h42c8.28125 0 15 6.71875 15 15v153c0 8.285156-6.714844 15-15 15zm0 0" fill="#fff7e6"/><path d="m504.390625 229.820312c-.441406 12.191407-10.828125 21.679688-23.03125 21.679688h-17.457031c12.699218 0 22.9375 10.519531 22.488281 23.320312-.441406 12.191407-10.828125 21.679688-23.03125 21.679688h-26.457031c9.546875 0 17.320312 7.652344 17.5 17.171875.179687 9.800781-8.152344 17.828125-17.960938 17.828125h-30c9.808594 0 18.140625-8.027344 17.960938-17.828125-.179688-9.519531-7.953125-17.171875-17.5-17.171875h26.457031c12.203125 0 22.589844-9.488281 23.03125-21.679688.449219-12.800781-9.789063-23.320312-22.488281-23.320312h17.457031c12.203125 0 22.589844-9.488281 23.03125-21.679688.449219-12.800781-9.789063-23.320312-22.488281-23.320312h-18c12.699218 0 22.9375-10.519531 22.488281-23.320312-.441406-12.1875-10.828125-21.679688-23.03125-21.679688h30c12.203125 0 22.589844 9.492188 23.03125 21.679688.449219 12.800781-9.789063 23.320312-22.488281 23.320312h18c12.699218 0 22.9375 10.519531 22.488281 23.320312zm0 0" fill="#f4b06c"/><path d="m401.734375 161.5h-29.9375c-2.761719 0-5-2.238281-5-5l-.0625-91.5c0-9.648438-4.96875-18.148438-12.5-23.039062 4.3125-2.820313 9.460937-4.460938 15-4.460938 15.191406 0 27.5 12.3125 27.5 27.5l.0625 91.5c0 2.742188 2.207031 4.972656 4.9375 5zm0 0" fill="#f4b06c"/><path d="m245.402344 160.5v153c0 8.28125-6.722656 15-15 15h-30c8.277344 0 15-6.71875 15-15v-153c0-8.277344-6.722656-15-15-15h30c8.277344 0 15 6.722656 15 15zm0 0" fill="#e8e8e8"/><path d="m503.589844 208.167969c-3.9375-4.078125-8.808594-6.894531-14.148438-8.246094 3.167969-5.035156 4.757813-10.902344 4.539063-17.007813-.566407-15.941406-14.257813-28.914062-30.519531-28.914062h-59.402344l-.058594-89c0-19.296875-15.699219-35-35-35s-35 15.703125-35 35v23.554688c0 6.042968-1.277344 11.875-3.628906 17.199218-44.042969-1.652344-79.371094-37.980468-79.371094-82.421875v-10.832031c0-6.894531-5.605469-12.5-12.5-12.5h-129c-6.894531 0-12.5 5.605469-12.5 12.5v8.5c0 45.492188-37.007812 82.5-82.5 82.5h-2c-6.894531 0-12.5 5.605469-12.5 12.5v150c0 95.945312 78.054688 174 174 174 68.058594 0 129.546875-39.484375 157.984375-101h104.554687c6.824219 0 13.496094-2.8125 18.304688-7.710938 4.734375-4.824218 7.277344-11.132812 7.152344-17.765624-.0625-3.375-.808594-6.59375-2.105469-9.523438h3.570313c16.261718 0 29.953124-12.972656 30.519531-28.914062.21875-6.15625-1.394531-12.066407-4.617188-17.128907 12.578125-3.382812 22.148438-14.597656 22.617188-27.871093.292969-8.222657-2.6875-16.007813-8.390625-21.917969zm-329.589844 216.832031c-87.671875 0-159-71.328125-159-159v-147.5c53.53125-.273438 97-43.90625 97-97.5v-6h124v8.332031c0 49.242188 36.691406 90.066407 84.167969 96.585938-1.800781 1.640625-3.746094 3.152343-5.851563 4.492187l-40.972656 26.070313c-3.617188 2.304687-7.792969 3.519531-12.078125 3.519531h-9.226563c-2.796874-9.246094-11.390624-16-21.539062-16h-42c-9.777344 0-18.113281 6.269531-21.210938 15h-36.789062c-10.753906 0-19.5 8.75-19.5 19.5v129c0 10.753906 8.746094 19.5 19.5 19.5h35.5v73.785156c-67.378906-3.898437-121-59.945312-121-128.285156v-124.269531c51.515625-3.75 92.570312-45.796875 94.742188-97.730469h26.257812v66c0 4.144531 3.359375 7.5 7.5 7.5s7.5-3.355469 7.5-7.5v-73.5c0-4.144531-3.359375-7.5-7.5-7.5h-41.167969c-4.140625 0-7.5 3.355469-7.5 7.5v3.167969c0 48.15625-39.175781 87.332031-87.332031 87.332031-4.140625 0-7.5 3.355469-7.5 7.5v131.5c0 79.125 64.375 143.5 143.5 143.5 4.140625 0 7.5-3.355469 7.5-7.5v-67.269531c1.753906.488281 3.59375.769531 5.5.769531h44c7.351562 0 13.890625-3.542969 17.996094-9.011719l8 4.53125c8.632812 4.894531 18.4375 7.480469 28.355468 7.480469h30.4375c-27.171874 52.597656-81.449218 86-141.289062 86zm-8-119h-35.5c-2.480469 0-4.5-2.019531-4.5-4.5v-129c0-2.480469 2.019531-4.5 4.5-4.5h35.5zm315.460938-62h-58.460938c-4.140625 0-7.5 3.355469-7.5 7.5s3.359375 7.5 7.5 7.5h41c4.105469 0 7.941406 1.628906 10.796875 4.585938 2.851563 2.953124 4.339844 6.851562 4.191406 10.96875-.28125 7.964843-7.25 14.445312-15.527343 14.445312h-26.460938c-.167969 0-.335938.015625-.5.023438-.164062-.007813-.332031-.023438-.5-.023438h-13c-4.140625 0-7.5 3.355469-7.5 7.5s3.359375 7.5 7.5 7.5h13c.167969 0 .335938-.015625.5-.023438.164062.007813.332031.023438.5.023438 5.410156 0 9.898438 4.398438 10 9.808594.046875 2.570312-.96875 5.046875-2.859375 6.976562-2.007813 2.042969-4.777344 3.214844-7.597656 3.214844h-151.691407c-7.332031 0-14.578124-1.910156-20.957031-5.527344l-10.894531-6.175781v-16.964844c0-4.140625-3.359375-7.5-7.5-7.5s-7.5 3.359375-7.5 7.5v18.167969c0 4.136719-3.363281 7.5-7.5 7.5h-44c-3.03125 0-5.5-2.46875-5.5-5.5v-155c0-4.136719 3.363281-7.5 7.5-7.5h42c4.136719 0 7.5 3.363281 7.5 7.5v99.832031c0 4.144531 3.359375 7.5 7.5 7.5s7.5-3.355469 7.5-7.5v-91.332031h8.265625c7.140625 0 14.105469-2.027344 20.128906-5.863281l40.976563-26.074219c16.675781-10.609375 26.628906-28.746094 26.628906-48.507812v-23.554688c0-11.027344 8.972656-20 20-20s20 8.972656 20 20.003906l.058594 91.503906c.003906 6.886719 5.613281 12.492188 12.5 12.492188h61.902344c8.277343 0 15.246093 6.480469 15.527343 14.445312.148438 4.117188-1.34375 8.015626-4.191406 10.96875-2.855469 2.957032-6.691406 4.585938-10.796875 4.585938h-41c-4.140625 0-7.5 3.355469-7.5 7.5s3.359375 7.5 7.5 7.5h59c4.105469 0 7.941406 1.628906 10.796875 4.585938 2.851563 2.953124 4.339844 6.851562 4.191406 10.96875-.28125 7.964843-7.25 14.445312-15.527343 14.445312zm0 0"/></svg>