<?xml version="1.0" encoding="utf-8"?>
<!-- Generator: Adobe Illustrator 23.0.3, SVG Export Plug-In . SVG Version: 6.00 Build 0)  -->
<svg version="1.1" id="Layer_1" xmlns="http://www.w3.org/2000/svg" xmlns:xlink="http://www.w3.org/1999/xlink" x="0px" y="0px"
	 viewBox="0 0 259.5 159.3" style="enable-background:new 0 0 259.5 159.3;" xml:space="preserve">
<style type="text/css">
	.st0{fill:#FFFFFF;}
	.st1{font-family:'TrajanPro-Bold';}
	.st2{font-size:46.315px;}
</style>
<g>
	<g>
		<path class="st0" d="M32.5,42.7c1.9-1.6,3.2-3.5,3.9-5c0.8-1.5,1.1-2.6,1.1-2.6s-1.3,0-3.2,0.3c-1.8,0.3-4.2,1.1-6.2,2.7
			c-1.6,1.3-2.8,3-3.4,4.5l0.2-1.6l0.2-1.6l0.5-3.2c1.7-0.2,5.5-0.9,8.5-3c1-0.7,1.9-1.5,2.6-2.3c0.7-0.8,1.3-1.6,1.7-2.3
			c0.9-1.4,1.4-2.5,1.4-2.5s-1.3-0.2-3.2,0c-1.9,0.2-4.3,0.7-6.4,2.1c-1.7,1.2-3.1,2.7-3.9,4.2c0.4-2,0.9-3.9,1.4-5.8
			c0.7-0.7,1.6-1.6,2.4-2.7c0.9-1.1,1.6-2.5,2.2-4c0.4-1.2,0.7-2.4,0.8-3.5c0.1-1.1,0.2-2.2,0.1-3.1C33.3,11.3,33,10,33,10
			s-1.2,0.6-2.6,1.9c-0.7,0.6-1.5,1.4-2.2,2.4c-0.7,1-1.3,2.1-1.8,3.4c-0.7,1.7-0.8,3.4-0.8,4.9c0,0.8,0.1,1.5,0.2,2.1
			c0.1,0.6,0.2,1.2,0.4,1.7c-0.5,1.9-1,3.8-1.4,5.7c-0.2-1.7-0.6-3.7-1.5-5.7C22,23.9,20.4,22,19,20.7c-1.4-1.3-2.6-2-2.6-2
			s-0.4,1.4-0.5,3.5c0,1,0,2.3,0.2,3.5c0.2,1.2,0.5,2.5,1.2,3.8c1.8,3.7,5.1,5.6,6.6,6.4l-0.5,3.2l-0.2,1.6L23,42.4
			c-0.4-1.7-0.9-3.6-2.1-5.5c-1.4-2.3-3.2-4-4.7-5.2c-1.5-1.2-2.7-1.7-2.7-1.7s-0.2,1.5-0.1,3.6c0.2,2.1,0.7,4.8,2.1,7.1
			c2.2,3.5,5.6,5.1,7.2,5.7l-0.2,3.3l-0.1,1.6l0,1.6c-0.6-1.6-1.3-3.5-2.6-5.3c-1.6-2.1-3.6-3.7-5.2-4.7c-1.6-1-2.9-1.4-2.9-1.4
			s-0.1,1.5,0.2,3.5c0.4,2.1,1.1,4.7,2.8,6.9c2.5,3.3,6.1,4.5,7.7,5l0.1,3.3c0,0.5,0,1.1,0.1,1.6l0.2,1.6c-0.7-1.6-1.6-3.4-3.1-5
			c-1.8-2-3.9-3.3-5.7-4.1c-1.7-0.8-3-1.2-3-1.2s0.1,1.5,0.6,3.5c0.3,1,0.7,2.1,1.2,3.3c0.6,1.1,1.2,2.3,2.2,3.3
			c2.8,3,6.5,3.9,8.2,4.2c0.3,2.2,0.6,4.3,1,6.5c-0.9-1.5-2-3.2-3.6-4.7c-2-1.8-4.2-2.9-6-3.6c-1.8-0.7-3.1-0.8-3.1-0.8
			s0.2,1.5,0.9,3.4c0.4,1,0.9,2.1,1.6,3.1c0.7,1.1,1.5,2.1,2.5,3c3.1,2.7,6.8,3.3,8.6,3.4c0.5,2.1,1,4.3,1.6,6.3
			c-0.5-0.7-1.1-1.4-1.7-2.2c-0.6-0.7-1.4-1.5-2.3-2.1c-1.1-0.8-2.2-1.4-3.3-1.9c-1.1-0.5-2.1-0.8-3.1-1.1c-1.9-0.5-3.2-0.5-3.2-0.5
			s0.1,0.4,0.3,1c0.2,0.6,0.5,1.4,1,2.4c0.5,0.9,1.1,2,1.9,3c0.4,0.5,0.8,1,1.3,1.5c0.5,0.5,1,0.9,1.5,1.3c3.3,2.4,7.1,2.6,8.9,2.5
			c0.7,2.1,1.4,4.1,2.2,6.1c-0.6-0.7-1.2-1.3-2-2c-0.7-0.7-1.5-1.3-2.5-1.9c-1.1-0.7-2.3-1.2-3.5-1.6C21,88.3,19.9,88.1,19,88
			c-1.9-0.3-3.2-0.2-3.2-0.2s0.1,0.4,0.4,0.9c0.3,0.6,0.6,1.4,1.2,2.3c0.6,0.9,1.3,1.9,2.1,2.8c0.4,0.5,0.9,0.9,1.4,1.3
			c0.5,0.4,1.1,0.8,1.7,1.1c1.8,1,3.6,1.5,5.2,1.7c1.6,0.2,3,0.1,3.9,0l1.4,3c0.4,1,1,1.9,1.5,2.9c-0.6-0.6-1.3-1.2-2.1-1.8
			c-0.8-0.6-1.7-1.2-2.6-1.6c-1.2-0.6-2.4-1-3.6-1.2c-1.2-0.3-2.3-0.4-3.2-0.4c-1.9-0.1-3.2,0.1-3.2,0.1s0.2,0.3,0.5,0.9
			c0.3,0.5,0.7,1.3,1.4,2.1c1.3,1.6,3.1,3.6,5.7,4.7c1.9,0.8,3.7,1.1,5.3,1.2c1.6,0,3-0.2,3.8-0.4l1.6,2.8c0.6,0.9,1.2,1.8,1.8,2.8
			c-0.7-0.5-1.4-1.1-2.3-1.6c-0.9-0.5-1.8-1-2.8-1.4c-2.5-0.9-5.1-1-6.9-1c-1.9,0.1-3.2,0.4-3.2,0.4s0.2,0.3,0.5,0.8
			c0.4,0.5,0.9,1.2,1.6,2c1.5,1.5,3.5,3.3,6.1,4.2c1.9,0.7,3.8,0.8,5.4,0.6c1.6-0.1,3-0.5,3.8-0.8l1.9,2.7c0.7,0.9,1.3,1.7,2,2.6
			c-0.7-0.5-1.5-0.9-2.4-1.4c-0.9-0.4-1.9-0.8-2.9-1.1c-2.6-0.7-5.1-0.5-7-0.3c-1.9,0.3-3.2,0.7-3.2,0.7s0.2,0.3,0.6,0.8
			c0.2,0.2,0.5,0.5,0.7,0.8c0.3,0.3,0.7,0.6,1.1,1c1.6,1.4,3.8,2.9,6.5,3.5c2,0.5,3.9,0.4,5.5,0.1c1.6-0.3,2.9-0.8,3.7-1.1l2.2,2.5
			l2.3,2.4c-0.8-0.4-1.6-0.8-2.6-1.1c-1-0.3-1.9-0.6-3-0.8c-2.6-0.4-5.2,0-7,0.4c-1.9,0.4-3.1,1-3.1,1s0.2,0.3,0.7,0.7
			c0.4,0.4,1.1,1,2,1.6c1.7,1.2,4.1,2.6,6.8,2.9c2,0.3,3.9,0,5.5-0.4c1.6-0.5,2.8-1.1,3.6-1.5l2.4,2.2l2.5,2.1
			c-1.6-0.6-3.6-1.2-5.7-1.3c-2.6-0.2-5.2,0.5-6.9,1.1c-1.8,0.6-2.9,1.3-2.9,1.3s0.3,0.3,0.8,0.6c0.5,0.4,1.2,0.9,2.1,1.4
			c1.8,1,4.3,2.1,7.1,2.2c2,0.1,3.9-0.4,5.4-1c1.5-0.6,2.7-1.4,3.4-1.8l2.6,2c0.9,0.6,1.8,1.2,2.7,1.9c-0.8-0.2-1.7-0.4-2.7-0.6
			c-1-0.1-2-0.2-3.1-0.2c-2.6,0.1-5.1,1-6.8,1.8c-1.7,0.8-2.8,1.6-2.8,1.6s0.3,0.2,0.8,0.6c0.5,0.4,1.3,0.8,2.3,1.2
			c1.9,0.8,4.5,1.7,7.2,1.5c2-0.1,3.8-0.7,5.3-1.5c1.5-0.8,2.5-1.6,3.2-2.2l3,1.8c1,0.6,2,1.1,3,1.7c2,1.2,4.1,2.1,6.2,3.2
			c0.4,0.2,1,0,1.2-0.4c0.2-0.4,0-1-0.4-1.2c-2-1-4.1-2-6.1-3.1c-1-0.6-2-1.1-3-1.7l-2.9-1.8c0.2-0.8,0.5-2.2,0.7-3.7
			c0.2-1.6,0.2-3.4-0.2-5.3c-0.5-2.4-1.6-4.4-2.6-5.8c-0.5-0.7-1-1.2-1.3-1.6c-0.3-0.4-0.5-0.6-0.5-0.6s-0.7,1.2-1.2,2.9
			c-0.6,1.8-1,4.2-0.5,6.7c0.2,1,0.5,2,0.9,2.9c0.4,0.9,0.9,1.6,1.4,2.3c-0.9-0.6-1.8-1.2-2.6-1.8l-2.6-2c0.3-0.8,0.8-2.1,1.1-3.6
			c0.3-1.6,0.5-3.4,0.3-5.2c-0.3-2.4-1.2-4.5-2-6c-0.4-0.7-0.8-1.3-1.1-1.7c-0.3-0.4-0.5-0.6-0.5-0.6s-0.8,1.1-1.5,2.8
			c-0.8,1.7-1.4,4-1.2,6.6c0.2,2.1,1,3.9,1.9,5.4l-2.4-2.1l-2.3-2.2c0.4-0.8,1-2,1.4-3.5c0.5-1.5,0.9-3.3,0.8-5.2
			c-0.1-2.4-0.7-4.6-1.4-6.2c-0.4-0.8-0.7-1.4-0.9-1.8c-0.2-0.4-0.4-0.7-0.4-0.7s-0.9,1-1.8,2.6c-0.9,1.7-1.8,3.9-1.8,6.5
			c0,1,0.1,2.1,0.4,3c0.3,0.9,0.6,1.8,1,2.5l-2.2-2.3l-2.1-2.4c0.5-0.7,1.1-1.9,1.7-3.4c0.6-1.5,1.2-3.2,1.3-5.1
			c0.2-2.4-0.2-4.7-0.8-6.3c-0.1-0.4-0.3-0.8-0.4-1.1c-0.1-0.3-0.2-0.6-0.3-0.8c-0.2-0.5-0.3-0.7-0.3-0.7s-1,0.9-2,2.5
			c-1.1,1.6-2.2,3.7-2.4,6.3c-0.1,1-0.1,2.1,0.1,3c0.2,0.9,0.4,1.8,0.7,2.6c-0.7-0.8-1.3-1.7-2-2.5l-1.9-2.6
			c0.5-0.7,1.3-1.8,2.1-3.2c0.8-1.4,1.5-3.1,1.8-4.9c0.4-2.4,0.2-4.7-0.2-6.3c-0.2-0.8-0.4-1.5-0.5-2c-0.2-0.5-0.3-0.7-0.3-0.7
			s-1.1,0.8-2.3,2.2c-1.2,1.4-2.5,3.5-3,6c-0.2,1-0.3,2-0.2,3c0.1,1,0.2,1.9,0.4,2.7c-0.6-0.9-1.2-1.8-1.7-2.7l-1.6-2.8
			c0.6-0.6,1.5-1.6,2.4-3c0.9-1.3,1.8-3,2.3-4.7c0.6-2.4,0.7-4.7,0.4-6.3c-0.1-0.8-0.2-1.5-0.3-2c-0.1-0.5-0.2-0.8-0.2-0.8
			s-1.1,0.7-2.5,2c-0.7,0.7-1.4,1.5-2,2.4c-0.6,0.9-1.2,2-1.6,3.3c-0.3,1-0.5,2-0.5,3c0,1,0.1,1.9,0.2,2.7c-0.5-1-1-1.9-1.4-2.9
			l-1.3-2.9c0.7-0.6,1.6-1.5,2.6-2.7c1-1.2,2.1-2.8,2.7-4.5c0.2-0.6,0.4-1.1,0.5-1.7c0.2-0.6,0.3-1.1,0.4-1.7
			c0.2-1.1,0.2-2.1,0.2-2.9c0-0.8-0.1-1.6-0.1-2.1c-0.1-0.5-0.1-0.8-0.1-0.8s-1.2,0.6-2.6,1.8c-0.7,0.6-1.5,1.3-2.3,2.2
			c-0.7,0.9-1.4,1.9-1.9,3.1c-0.4,1-0.7,1.9-0.8,2.9c-0.1,1-0.1,1.9-0.1,2.7c-0.8-2-1.5-4-2.2-6c1.4-1,4.4-3.3,6.1-6.6
			c0.3-0.6,0.5-1.1,0.7-1.6c0.2-0.5,0.4-1.1,0.5-1.6c0.3-1,0.4-2,0.4-2.9c0.1-0.8,0.1-1.6,0.1-2.1c0-0.5-0.1-0.8-0.1-0.8
			s-1.2,0.5-2.8,1.5c-0.8,0.5-1.6,1.2-2.5,2c-0.8,0.8-1.6,1.8-2.2,2.9c-0.5,0.9-0.8,1.9-1.1,2.8c-0.2,0.9-0.3,1.8-0.4,2.7
			c-0.6-2-1.1-4.1-1.6-6.2c1.5-0.8,4.7-2.9,6.7-6c0.6-1,1.2-2.1,1.5-3.1c0.4-1,0.6-2,0.7-2.8c0.3-1.7,0.3-2.8,0.3-2.8
			S34.6,63,33,63.9c-1.7,0.9-3.7,2.3-5.1,4.4c-1.2,1.7-1.8,3.7-2,5.3c-0.5-2.1-0.7-4.2-1-6.4c1.5-0.7,5-2.4,7.2-5.3
			c0.7-1,1.4-2,1.8-3c0.5-1,0.8-1.9,1-2.7c0.5-1.6,0.6-2.8,0.6-2.8s-1.3,0.2-3,0.9c-1.7,0.7-3.9,1.9-5.5,3.9
			c-1.3,1.6-2.1,3.5-2.5,5.1l-0.1-1.6c0-0.5-0.1-1.1-0.1-1.6l-0.1-3.2c1.6-0.5,5.2-1.9,7.7-4.6c1.7-1.8,2.8-3.8,3.4-5.4
			c0.7-1.6,0.9-2.7,0.9-2.7s-1.3,0.1-3.1,0.6c-1.8,0.5-4.1,1.5-5.9,3.3c-1.5,1.5-2.5,3.3-3,4.9l0-1.6l0.1-1.6l0.2-3.2
			C26,46.1,29.8,45.1,32.5,42.7z"/>
	</g>
	<g>
		<path class="st0" d="M229,42.7c-1.9-1.6-3.2-3.5-3.9-5c-0.8-1.5-1.1-2.6-1.1-2.6s1.3,0,3.2,0.3c1.8,0.3,4.2,1.1,6.2,2.7
			c1.6,1.3,2.8,3,3.4,4.5l-0.2-1.6l-0.2-1.6l-0.5-3.2c-1.7-0.2-5.5-0.9-8.5-3c-1-0.7-1.9-1.5-2.6-2.3c-0.7-0.8-1.3-1.6-1.7-2.3
			c-0.9-1.4-1.4-2.5-1.4-2.5s1.3-0.2,3.2,0c1.9,0.2,4.3,0.7,6.4,2.1c1.7,1.2,3.1,2.7,3.9,4.2c-0.4-2-0.9-3.9-1.4-5.8
			c-0.7-0.7-1.6-1.6-2.4-2.7c-0.9-1.1-1.6-2.5-2.2-4c-0.4-1.2-0.7-2.4-0.8-3.5c-0.1-1.1-0.2-2.2-0.1-3.1c0.1-1.9,0.4-3.2,0.4-3.2
			s1.2,0.6,2.6,1.9c0.7,0.6,1.5,1.4,2.2,2.4c0.7,1,1.3,2.1,1.8,3.4c0.7,1.7,0.8,3.4,0.8,4.9c0,0.8-0.1,1.5-0.2,2.1
			c-0.1,0.6-0.2,1.2-0.4,1.7c0.5,1.9,1,3.8,1.4,5.7c0.2-1.7,0.6-3.7,1.5-5.7c1.2-2.4,2.8-4.3,4.2-5.6c1.4-1.3,2.6-2,2.6-2
			s0.4,1.4,0.5,3.5c0,1,0,2.3-0.2,3.5c-0.2,1.2-0.5,2.5-1.2,3.8c-1.8,3.7-5.1,5.6-6.6,6.4l0.5,3.2l0.2,1.6l0.2,1.6
			c0.4-1.7,0.9-3.6,2.1-5.5c1.4-2.3,3.2-4,4.7-5.2c1.5-1.2,2.7-1.7,2.7-1.7s0.2,1.5,0.1,3.6c-0.2,2.1-0.7,4.8-2.1,7.1
			c-2.2,3.5-5.6,5.1-7.2,5.7l0.2,3.3l0.1,1.6l0,1.6c0.6-1.6,1.3-3.5,2.6-5.3c1.6-2.1,3.6-3.7,5.2-4.7c1.6-1,2.9-1.4,2.9-1.4
			s0.1,1.5-0.2,3.5c-0.4,2.1-1.1,4.7-2.8,6.9c-2.5,3.3-6.1,4.5-7.7,5l-0.1,3.3c0,0.5,0,1.1-0.1,1.6l-0.2,1.6c0.7-1.6,1.6-3.4,3.1-5
			c1.8-2,3.9-3.3,5.7-4.1c1.7-0.8,3-1.2,3-1.2s-0.1,1.5-0.6,3.5c-0.3,1-0.7,2.1-1.2,3.3c-0.6,1.1-1.2,2.3-2.2,3.3
			c-2.8,3-6.5,3.9-8.2,4.2c-0.3,2.2-0.6,4.3-1,6.5c0.9-1.5,2-3.2,3.6-4.7c2-1.8,4.2-2.9,6-3.6c1.8-0.7,3.1-0.8,3.1-0.8
			s-0.2,1.5-0.9,3.4c-0.4,1-0.9,2.1-1.6,3.1c-0.7,1.1-1.5,2.1-2.5,3c-3.1,2.7-6.8,3.3-8.6,3.4c-0.5,2.1-1,4.3-1.6,6.3
			c0.5-0.7,1.1-1.4,1.7-2.2c0.6-0.7,1.4-1.5,2.3-2.1c1.1-0.8,2.2-1.4,3.3-1.9c1.1-0.5,2.1-0.8,3.1-1.1c1.9-0.5,3.2-0.5,3.2-0.5
			s-0.1,0.4-0.3,1c-0.2,0.6-0.5,1.4-1,2.4c-0.5,0.9-1.1,2-1.9,3c-0.4,0.5-0.8,1-1.3,1.5c-0.5,0.5-1,0.9-1.5,1.3
			c-3.3,2.4-7.1,2.6-8.9,2.5c-0.7,2.1-1.4,4.1-2.2,6.1c0.6-0.7,1.2-1.3,2-2c0.7-0.7,1.5-1.3,2.5-1.9c1.1-0.7,2.3-1.2,3.5-1.6
			c1.1-0.4,2.2-0.6,3.1-0.8c1.9-0.3,3.2-0.2,3.2-0.2s-0.1,0.4-0.4,0.9c-0.3,0.6-0.6,1.4-1.2,2.3c-0.6,0.9-1.3,1.9-2.1,2.8
			c-0.4,0.5-0.9,0.9-1.4,1.3c-0.5,0.4-1.1,0.8-1.7,1.1c-1.8,1-3.6,1.5-5.2,1.7c-1.6,0.2-3,0.1-3.9,0l-1.4,3c-0.4,1-1,1.9-1.5,2.9
			c0.6-0.6,1.3-1.2,2.1-1.8c0.8-0.6,1.7-1.2,2.6-1.6c1.2-0.6,2.4-1,3.6-1.2c1.2-0.3,2.3-0.4,3.2-0.4c1.9-0.1,3.2,0.1,3.2,0.1
			s-0.2,0.3-0.5,0.9c-0.3,0.5-0.7,1.3-1.4,2.1c-1.3,1.6-3.1,3.6-5.7,4.7c-1.9,0.8-3.7,1.1-5.3,1.2c-1.6,0-3-0.2-3.8-0.4l-1.6,2.8
			c-0.6,0.9-1.2,1.8-1.8,2.8c0.7-0.5,1.4-1.1,2.3-1.6c0.9-0.5,1.8-1,2.8-1.4c2.5-0.9,5.1-1,6.9-1c1.9,0.1,3.2,0.4,3.2,0.4
			s-0.2,0.3-0.5,0.8c-0.4,0.5-0.9,1.2-1.6,2c-1.5,1.5-3.5,3.3-6.1,4.2c-1.9,0.7-3.8,0.8-5.4,0.6c-1.6-0.1-3-0.5-3.8-0.8l-1.9,2.7
			c-0.7,0.9-1.3,1.7-2,2.6c0.7-0.5,1.5-0.9,2.4-1.4c0.9-0.4,1.9-0.8,2.9-1.1c2.6-0.7,5.1-0.5,7-0.3c1.9,0.3,3.2,0.7,3.2,0.7
			s-0.2,0.3-0.6,0.8c-0.2,0.2-0.5,0.5-0.7,0.8c-0.3,0.3-0.7,0.6-1.1,1c-1.6,1.4-3.8,2.9-6.5,3.5c-2,0.5-3.9,0.4-5.5,0.1
			c-1.6-0.3-2.9-0.8-3.7-1.1L211,127l-2.3,2.4c0.8-0.4,1.6-0.8,2.6-1.1c1-0.3,1.9-0.6,3-0.8c2.6-0.4,5.2,0,7,0.4
			c1.9,0.4,3.1,1,3.1,1s-0.2,0.3-0.7,0.7c-0.4,0.4-1.1,1-2,1.6c-1.7,1.2-4.1,2.6-6.8,2.9c-2,0.3-3.9,0-5.5-0.4
			c-1.6-0.5-2.8-1.1-3.6-1.5l-2.4,2.2l-2.5,2.1c1.6-0.6,3.6-1.2,5.7-1.3c2.6-0.2,5.2,0.5,6.9,1.1c1.8,0.6,2.9,1.3,2.9,1.3
			s-0.3,0.3-0.8,0.6c-0.5,0.4-1.2,0.9-2.1,1.4c-1.8,1-4.3,2.1-7.1,2.2c-2,0.1-3.9-0.4-5.4-1c-1.5-0.6-2.7-1.4-3.4-1.8l-2.6,2
			c-0.9,0.6-1.8,1.2-2.7,1.9c0.8-0.2,1.7-0.4,2.7-0.6c1-0.1,2-0.2,3.1-0.2c2.6,0.1,5.1,1,6.8,1.8c1.7,0.8,2.8,1.6,2.8,1.6
			s-0.3,0.2-0.8,0.6c-0.5,0.4-1.3,0.8-2.3,1.2c-1.9,0.8-4.5,1.7-7.2,1.5c-2-0.1-3.8-0.7-5.3-1.5c-1.5-0.8-2.5-1.6-3.2-2.2l-3,1.8
			c-1,0.6-2,1.1-3,1.7c-2,1.2-4.1,2.1-6.2,3.2c-0.4,0.2-1,0-1.2-0.4c-0.2-0.4,0-1,0.4-1.2c2-1,4.1-2,6.1-3.1c1-0.6,2-1.1,3-1.7
			l2.9-1.8c-0.2-0.8-0.5-2.2-0.7-3.7c-0.2-1.6-0.2-3.4,0.2-5.3c0.5-2.4,1.6-4.4,2.6-5.8c0.5-0.7,1-1.2,1.3-1.6
			c0.3-0.4,0.5-0.6,0.5-0.6s0.7,1.2,1.2,2.9c0.6,1.8,1,4.2,0.5,6.7c-0.2,1-0.5,2-0.9,2.9c-0.4,0.9-0.9,1.6-1.4,2.3
			c0.9-0.6,1.8-1.2,2.6-1.8l2.6-2c-0.3-0.8-0.8-2.1-1.1-3.6c-0.3-1.6-0.5-3.4-0.3-5.2c0.3-2.4,1.2-4.5,2-6c0.4-0.7,0.8-1.3,1.1-1.7
			c0.3-0.4,0.5-0.6,0.5-0.6s0.8,1.1,1.5,2.8c0.8,1.7,1.4,4,1.2,6.6c-0.2,2.1-1,3.9-1.9,5.4l2.4-2.1l2.3-2.2c-0.4-0.8-1-2-1.4-3.5
			c-0.5-1.5-0.9-3.3-0.8-5.2c0.1-2.4,0.7-4.6,1.4-6.2c0.4-0.8,0.7-1.4,0.9-1.8c0.2-0.4,0.4-0.7,0.4-0.7s0.9,1,1.8,2.6
			c0.9,1.7,1.8,3.9,1.8,6.5c0,1-0.1,2.1-0.4,3c-0.3,0.9-0.6,1.8-1,2.5l2.2-2.3l2.1-2.4c-0.5-0.7-1.1-1.9-1.7-3.4
			c-0.6-1.5-1.2-3.2-1.3-5.1c-0.2-2.4,0.2-4.7,0.8-6.3c0.1-0.4,0.3-0.8,0.4-1.1c0.1-0.3,0.2-0.6,0.3-0.8c0.2-0.5,0.3-0.7,0.3-0.7
			s1,0.9,2,2.5c1.1,1.6,2.2,3.7,2.4,6.3c0.1,1,0.1,2.1-0.1,3c-0.2,0.9-0.4,1.8-0.7,2.6c0.7-0.8,1.3-1.7,2-2.5l1.9-2.6
			c-0.5-0.7-1.3-1.8-2.1-3.2c-0.8-1.4-1.5-3.1-1.8-4.9c-0.4-2.4-0.2-4.7,0.2-6.3c0.2-0.8,0.4-1.5,0.5-2c0.2-0.5,0.3-0.7,0.3-0.7
			s1.1,0.8,2.3,2.2c1.2,1.4,2.5,3.5,3,6c0.2,1,0.3,2,0.2,3c-0.1,1-0.2,1.9-0.4,2.7c0.6-0.9,1.2-1.8,1.7-2.7l1.6-2.8
			c-0.6-0.6-1.5-1.6-2.4-3c-0.9-1.3-1.8-3-2.3-4.7c-0.6-2.4-0.7-4.7-0.4-6.3c0.1-0.8,0.2-1.5,0.3-2c0.1-0.5,0.2-0.8,0.2-0.8
			s1.1,0.7,2.5,2c0.7,0.7,1.4,1.5,2,2.4c0.6,0.9,1.2,2,1.6,3.3c0.3,1,0.5,2,0.5,3c0,1-0.1,1.9-0.2,2.7c0.5-1,1-1.9,1.4-2.9l1.3-2.9
			c-0.7-0.6-1.6-1.5-2.6-2.7c-1-1.2-2.1-2.8-2.7-4.5c-0.2-0.6-0.4-1.1-0.5-1.7c-0.2-0.6-0.3-1.1-0.4-1.7c-0.2-1.1-0.2-2.1-0.2-2.9
			c0-0.8,0.1-1.6,0.1-2.1c0.1-0.5,0.1-0.8,0.1-0.8s1.2,0.6,2.6,1.8c0.7,0.6,1.5,1.3,2.3,2.2c0.7,0.9,1.4,1.9,1.9,3.1
			c0.4,1,0.7,1.9,0.8,2.9c0.1,1,0.1,1.9,0.1,2.7c0.8-2,1.5-4,2.2-6c-1.4-1-4.4-3.3-6.1-6.6c-0.3-0.6-0.5-1.1-0.7-1.6
			c-0.2-0.5-0.4-1.1-0.5-1.6c-0.3-1-0.4-2-0.4-2.9c-0.1-0.8-0.1-1.6-0.1-2.1c0-0.5,0.1-0.8,0.1-0.8s1.2,0.5,2.8,1.5
			c0.8,0.5,1.6,1.2,2.5,2c0.8,0.8,1.6,1.8,2.2,2.9c0.5,0.9,0.8,1.9,1.1,2.8c0.2,0.9,0.3,1.8,0.4,2.7c0.6-2,1.1-4.1,1.6-6.2
			c-1.5-0.8-4.7-2.9-6.7-6c-0.6-1-1.2-2.1-1.5-3.1c-0.4-1-0.6-2-0.7-2.8c-0.3-1.7-0.3-2.8-0.3-2.8s1.3,0.3,2.9,1.2
			c1.7,0.9,3.7,2.3,5.1,4.4c1.2,1.7,1.8,3.7,2,5.3c0.5-2.1,0.7-4.2,1-6.4c-1.5-0.7-5-2.4-7.2-5.3c-0.7-1-1.4-2-1.8-3
			c-0.5-1-0.8-1.9-1-2.7c-0.5-1.6-0.6-2.8-0.6-2.8s1.3,0.2,3,0.9c1.7,0.7,3.9,1.9,5.5,3.9c1.3,1.6,2.1,3.5,2.5,5.1l0.1-1.6
			c0-0.5,0.1-1.1,0.1-1.6l0.1-3.2c-1.6-0.5-5.2-1.9-7.7-4.6c-1.7-1.8-2.8-3.8-3.4-5.4c-0.7-1.6-0.9-2.7-0.9-2.7s1.3,0.1,3.1,0.6
			c1.8,0.5,4.1,1.5,5.9,3.3c1.5,1.5,2.5,3.3,3,4.9l0-1.6l-0.1-1.6l-0.2-3.2C235.5,46.1,231.8,45.1,229,42.7z"/>
	</g>
</g>
<g>
	<text transform="matrix(1 0 0 1 89.6498 65.2071)" class="st0 st1 st2">VIP</text>
	<text transform="matrix(1 0 0 1 62.1424 111.9127)" class="st0 st1 st2">CLUB</text>
</g>
</svg>
