<?xml version="1.0" encoding="UTF-8"?><svg id="Layer_2" xmlns="http://www.w3.org/2000/svg" viewBox="0 0 43 25.8"><defs><style>.cls-1{fill:#01bcb6;}</style></defs><g id="Layer_1-2"><path class="cls-1" d="M43,12.9c0,.5-.2,.9-.5,1.2l-11.2,11.2c-.3,.3-.7,.5-1.2,.5s-.9-.2-1.2-.5l-1-1c-.3-.3-.5-.7-.5-1.2s.2-.9,.5-1.2l4.9-4.9,1.7-1.7H8.6l1.7,1.7,4.8,4.8c.3,.3,.5,.8,.5,1.2s-.2,.9-.5,1.2l-1,1c-.3,.3-.7,.5-1.2,.5s-.9-.2-1.2-.5L.5,14.1c-.3-.3-.5-.7-.5-1.2s.2-.9,.5-1.2L11.7,.5c.3-.3,.7-.5,1.2-.5s.9,.2,1.2,.5l1,1c.3,.3,.5,.7,.5,1.2s-.2,.9-.5,1.2l-4.9,4.9-1.7,1.7h25.9l-1.7-1.7-4.8-4.8c-.3-.3-.5-.8-.5-1.2s.2-.9,.5-1.2l1-1c.3-.3,.7-.5,1.2-.5s.9,.2,1.2,.5l11.2,11.2c.3,.3,.5,.7,.5,1.2Z"/></g></svg>